<svg width="21" height="20" viewBox="0 0 21 20" fill="none" xmlns="http://www.w3.org/2000/svg">
<path d="M2.61306 2.18855C2.79006 1.5586 3.16816 1.0038 3.68974 0.608683C4.21133 0.21357 4.84779 -0.000183107 5.50213 1.17694e-07H15.5044C16.1587 -0.000183107 16.7952 0.21357 17.3167 0.608683C17.8383 1.0038 18.2164 1.5586 18.3934 2.18855L20.8835 11.0358C21.014 11.4999 21.0351 11.988 20.9453 12.4617C20.8555 12.9354 20.657 13.3819 20.3656 13.766C20.0742 14.1501 19.6978 14.4615 19.2658 14.6757C18.8338 14.8898 18.3581 15.001 17.8759 15.0003H9.00321V13.5003H17.8774C18.1276 13.5004 18.3743 13.4425 18.5984 13.3312C18.8224 13.2199 19.0177 13.0583 19.1688 12.8589C19.3199 12.6596 19.4228 12.4279 19.4694 12.1821C19.516 11.9363 19.5051 11.6831 19.4375 11.4423L16.9474 2.59356C16.8589 2.27922 16.6702 2.00235 16.4101 1.80498C16.1499 1.60762 15.8324 1.50055 15.5059 1.50003H5.50213C5.17486 1.49999 4.85656 1.60697 4.59575 1.80468C4.33495 2.00238 4.14596 2.27995 4.05759 2.59506L3.52208 4.5001H2.25005C2.15105 4.5001 2.05505 4.5046 1.95905 4.5106L2.61156 2.18855H2.61306ZM8.92821 18.0004H15.7549C15.9538 18.0004 16.1446 17.9214 16.2852 17.7807C16.4259 17.6401 16.5049 17.4493 16.5049 17.2504C16.5049 17.0515 16.4259 16.8607 16.2852 16.7201C16.1446 16.5794 15.9538 16.5004 15.7549 16.5004H9.00471V17.2504C9.00471 17.5069 8.97771 17.7574 8.92971 18.0004H8.92821ZM3.75159 11.2503C4.04996 11.2503 4.33612 11.1317 4.5471 10.9207C4.75808 10.7098 4.87661 10.4236 4.87661 10.1252C4.87661 9.82686 4.75808 9.54071 4.5471 9.32972C4.33612 9.11874 4.04996 9.00021 3.75159 9.00021C3.45321 9.00021 3.16706 9.11874 2.95607 9.32972C2.74509 9.54071 2.62656 9.82686 2.62656 10.1252C2.62656 10.4236 2.74509 10.7098 2.95607 10.9207C3.16706 11.1317 3.45321 11.2503 3.75159 11.2503ZM0 8.25019C0 7.65344 0.237058 7.08113 0.659025 6.65916C1.08099 6.2372 1.6533 6.00014 2.25005 6.00014H5.25162C5.84837 6.00014 6.42068 6.2372 6.84265 6.65916C7.26462 7.08113 7.50167 7.65344 7.50167 8.25019V17.2504C7.50167 17.8472 7.26462 18.4195 6.84265 18.8414C6.42068 19.2634 5.84837 19.5005 5.25162 19.5005H2.25155C1.95594 19.5006 1.6632 19.4426 1.39003 19.3296C1.11687 19.2166 0.868651 19.0509 0.659555 18.842C0.45046 18.633 0.284588 18.3849 0.171418 18.1118C0.0582489 17.8387 -6.56905e-08 17.546 0 17.2504V8.25019ZM2.25005 7.50017C2.05114 7.50017 1.86037 7.57919 1.71971 7.71985C1.57905 7.8605 1.50003 8.05127 1.50003 8.25019V17.2504C1.50003 17.4493 1.57905 17.6401 1.71971 17.7807C1.86037 17.9214 2.05114 18.0004 2.25005 18.0004H5.25162C5.45054 18.0004 5.64131 17.9214 5.78196 17.7807C5.92262 17.6401 6.00164 17.4493 6.00164 17.2504V8.25019C6.00164 8.05127 5.92262 7.8605 5.78196 7.71985C5.64131 7.57919 5.45054 7.50017 5.25162 7.50017H2.25155H2.25005Z" fill="#40BFFF"/>
</svg>
