<svg width="14" height="14" viewBox="0 0 14 14" fill="none" xmlns="http://www.w3.org/2000/svg">
<path d="M11.9 0H2.09999C0.909997 0 0 0.909997 0 2.09999V11.9C0 13.09 0.909997 14 2.09999 14H11.9C13.09 14 14 13.09 14 11.9V2.09999C14 0.909997 13.09 0 11.9 0ZM9.79997 7.69998H7.69998V9.79997C7.69998 10.22 7.41998 10.5 6.99998 10.5C6.57998 10.5 6.29998 10.22 6.29998 9.79997V7.69998H4.19999C3.77999 7.69998 3.49999 7.41998 3.49999 6.99998C3.49999 6.57998 3.77999 6.29998 4.19999 6.29998H6.29998V4.19999C6.29998 3.77999 6.57998 3.49999 6.99998 3.49999C7.41998 3.49999 7.69998 3.77999 7.69998 4.19999V6.29998H9.79997C10.22 6.29998 10.5 6.57998 10.5 6.99998C10.5 7.41998 10.22 7.69998 9.79997 7.69998Z" fill="black"/>
</svg>
