<svg width="22" height="20" viewBox="0 0 22 20" fill="none" xmlns="http://www.w3.org/2000/svg">
<path d="M2.81362 16.1144V19.1838M3.83675 7.92929V2.81362C3.83675 2.27091 4.05234 1.75044 4.43609 1.36669C4.81984 0.982939 5.34032 0.76735 5.88302 0.76735H16.1144C16.6571 0.76735 17.1775 0.982939 17.5613 1.36669C17.945 1.75044 18.1606 2.27091 18.1606 2.81362V7.92929" stroke="#40BFFF" stroke-width="1.5" stroke-linecap="round" stroke-linejoin="round"/>
<path d="M19.1838 16.1144V19.1838M18.6722 7.92929C17.9938 7.92929 17.3432 8.19877 16.8635 8.67846C16.3838 9.15815 16.1144 9.80874 16.1144 10.4871V12.0218H5.88302V10.4871C5.88292 10.0032 5.74553 9.52917 5.48679 9.12018C5.22806 8.71119 4.85861 8.38399 4.42134 8.17659C3.98408 7.96919 3.49694 7.8901 3.01652 7.9485C2.5361 8.0069 2.08211 8.2004 1.70727 8.50652C1.33243 8.81264 1.05212 9.21882 0.898911 9.67789C0.745699 10.137 0.725868 10.6301 0.84172 11.1C0.957572 11.5698 1.20435 11.9972 1.5534 12.3324C1.90245 12.6677 2.33944 12.897 2.81362 12.9938V16.1144H19.1838V12.9938C19.8054 12.8676 20.3579 12.5149 20.7342 12.0042C21.1104 11.4935 21.2834 10.8612 21.2196 10.2301C21.1559 9.59896 20.8599 9.01405 20.3892 8.58889C19.9184 8.16373 19.3065 7.92865 18.6722 7.92929V7.92929Z" stroke="#40BFFF" stroke-width="1.5" stroke-linecap="round" stroke-linejoin="round"/>
</svg>
