<svg width="20" height="16" viewBox="0 0 20 16" fill="none" xmlns="http://www.w3.org/2000/svg">
<path fill-rule="evenodd" clip-rule="evenodd" d="M0 1C0 0.447715 0.447715 0 1 0H19C19.5523 0 20 0.447715 20 1V14.5C20 15.0523 19.5523 15.5 19 15.5H1C0.447715 15.5 0 15.0523 0 14.5V1ZM2 2V13.5H18V2H2Z" fill="#9098B1"/>
<path fill-rule="evenodd" clip-rule="evenodd" d="M0.240755 0.349235C0.600173 -0.0700949 1.23147 -0.118663 1.6508 0.240755L10 7.39708L18.3492 0.240755C18.7686 -0.118663 19.3999 -0.0700949 19.7593 0.349235C20.1187 0.768564 20.0701 1.39986 19.6508 1.75928L10.6508 9.47341C10.2763 9.79439 9.72372 9.79439 9.34923 9.47341L0.349235 1.75928C-0.0700949 1.39986 -0.118663 0.768564 0.240755 0.349235Z" fill="#9098B1"/>
</svg>
